<?xml version="1.0" encoding="UTF-8" standalone="no"?>
<svg
   xmlns:dc="http://purl.org/dc/elements/1.1/"
   xmlns:cc="http://creativecommons.org/ns#"
   xmlns:rdf="http://www.w3.org/1999/02/22-rdf-syntax-ns#"
   xmlns:svg="http://www.w3.org/2000/svg"
   xmlns="http://www.w3.org/2000/svg"
   xmlns:sodipodi="http://sodipodi.sourceforge.net/DTD/sodipodi-0.dtd"
   xmlns:inkscape="http://www.inkscape.org/namespaces/inkscape"
   version="1.1"
   id="svg10"
   xml:space="preserve"
   width="920.54999"
   height="348.18765"
   viewBox="0 0 920.54997 348.18765"
   sodipodi:docname="AMADEUS_logo_Pantone.svg"
   inkscape:version="1.0.1 (3bc2e813f5, 2020-09-07)"><metadata
     id="metadata16"><rdf:RDF><cc:Work
         rdf:about=""><dc:format>image/svg+xml</dc:format><dc:type
           rdf:resource="http://purl.org/dc/dcmitype/StillImage" /><dc:title></dc:title></cc:Work></rdf:RDF></metadata><defs
     id="defs14"><clipPath
       clipPathUnits="userSpaceOnUse"
       id="clipPath26"><path
         d="M 0,595.276 H 841.89 V 0 H 0 Z"
         id="path24" /></clipPath></defs><sodipodi:namedview
     pagecolor="#ffffff"
     bordercolor="#666666"
     borderopacity="1"
     objecttolerance="10"
     gridtolerance="10"
     guidetolerance="10"
     inkscape:pageopacity="0"
     inkscape:pageshadow="2"
     inkscape:window-width="1680"
     inkscape:window-height="987"
     id="namedview12"
     showgrid="false"
     inkscape:zoom="0.70710678"
     inkscape:cx="318.61511"
     inkscape:cy="129.86267"
     inkscape:window-x="1683"
     inkscape:window-y="1016"
     inkscape:window-maximized="1"
     inkscape:current-layer="g18" /><g
     id="g18"
     inkscape:groupmode="layer"
     inkscape:label="AMADEUS_logo_Pantone"
     transform="matrix(1.3333333,0,0,-1.3333333,-98.423998,570.90425)"><g
       id="g20"><g
         id="g22"
         clip-path="url(#clipPath26)"><g
           id="g28"
           transform="translate(361.4092,343.0359)"><path
             d="m 0,0 c 0,-4.924 1.248,-8.91 3.744,-11.961 2.496,-3.052 5.824,-4.576 9.985,-4.576 3.952,0 7.176,1.542 9.672,4.628 2.496,3.085 3.745,7.055 3.745,11.909 0,4.853 -1.232,8.736 -3.693,11.648 -2.462,2.913 -5.704,4.369 -9.724,4.369 -4.092,0 -7.403,-1.456 -9.933,-4.369 C 1.264,8.736 0,4.853 0,0 m 27.25,-18.306 c -1.181,-2.565 -3.069,-4.645 -5.669,-6.24 -2.6,-1.594 -5.668,-2.391 -9.205,-2.391 -7.28,0 -13.174,2.547 -17.681,7.644 -4.508,5.096 -6.76,11.526 -6.76,19.293 0,7.488 2.252,13.78 6.76,18.877 4.507,5.096 10.331,7.644 17.473,7.644 4.021,0 7.297,-0.832 9.829,-2.496 2.53,-1.664 4.212,-3.536 5.045,-5.616 v 6.656 h 11.752 v -41.394 c 0,-2.704 0.172,-5.79 0.52,-9.257 H 27.77 c -0.349,1.94 -0.52,4.368 -0.52,7.28"
             style="fill:#00205c;fill-opacity:1;fill-rule:nonzero;stroke:none"
             id="path30" /></g><g
           id="g32"
           transform="translate(423.792,317.4499)"><path
             d="m 0,0 h -11.961 v 50.651 h 11.545 v -6.448 c 1.386,2.496 3.483,4.437 6.292,5.824 2.809,1.386 5.702,2.08 8.685,2.08 3.396,0 6.448,-0.763 9.152,-2.288 2.704,-1.526 4.715,-3.744 6.032,-6.656 3.536,5.962 9.013,8.944 16.434,8.944 4.992,0 9.22,-1.629 12.688,-4.888 3.466,-3.26 5.2,-8.044 5.2,-14.353 V 0 H 52.419 v 30.89 c 0,3.12 -0.816,5.632 -2.444,7.541 -1.63,1.906 -4.075,2.86 -7.333,2.86 -3.121,0 -5.652,-1.076 -7.592,-3.225 -1.943,-2.15 -2.912,-4.82 -2.912,-8.008 V 0 H 20.281 v 30.89 c 0,3.12 -0.816,5.632 -2.444,7.541 -1.63,1.906 -4.074,2.86 -7.333,2.86 -3.19,0 -5.738,-1.059 -7.645,-3.173 C 0.952,36.003 0,33.316 0,30.058 Z"
             style="fill:#00205c;fill-opacity:1;fill-rule:nonzero;stroke:none"
             id="path34" /></g><g
           id="g36"
           transform="translate(508.0039,343.0359)"><path
             d="m 0,0 c 0,-4.924 1.248,-8.91 3.744,-11.961 2.496,-3.052 5.824,-4.576 9.985,-4.576 3.952,0 7.176,1.542 9.672,4.628 2.496,3.085 3.745,7.055 3.745,11.909 0,4.853 -1.232,8.736 -3.693,11.648 -2.462,2.913 -5.704,4.369 -9.724,4.369 -4.092,0 -7.403,-1.456 -9.933,-4.369 C 1.265,8.736 0,4.853 0,0 m 27.25,-18.306 c -1.181,-2.565 -3.068,-4.645 -5.669,-6.24 -2.6,-1.594 -5.668,-2.391 -9.204,-2.391 -7.28,0 -13.175,2.547 -17.682,7.644 -4.508,5.096 -6.759,11.526 -6.759,19.293 0,7.488 2.251,13.78 6.759,18.877 4.507,5.096 10.331,7.644 17.474,7.644 4.02,0 7.297,-0.832 9.828,-2.496 2.53,-1.664 4.213,-3.536 5.045,-5.616 v 6.656 h 11.752 v -41.394 c 0,-2.704 0.173,-5.79 0.52,-9.257 H 27.77 c -0.348,1.94 -0.52,4.368 -0.52,7.28"
             style="fill:#00205c;fill-opacity:1;fill-rule:nonzero;stroke:none"
             id="path38" /></g><g
           id="g40"
           transform="translate(567.2666,342.9314)"><path
             d="m 0,0 c 0,-4.854 1.248,-8.754 3.744,-11.7 2.496,-2.948 5.788,-4.421 9.88,-4.421 3.952,0 7.177,1.49 9.673,4.473 2.496,2.98 3.744,6.898 3.744,11.752 0,4.785 -1.214,8.597 -3.64,11.441 -2.428,2.842 -5.652,4.265 -9.672,4.265 -4.023,0 -7.317,-1.441 -9.881,-4.317 C 1.282,8.615 0,4.784 0,0 m 38.689,49.819 v -66.044 c 0,-3.398 0.173,-6.484 0.521,-9.256 H 27.665 c -0.348,1.94 -0.519,4.125 -0.519,6.552 -1.249,-2.288 -3.191,-4.16 -5.826,-5.616 -2.635,-1.456 -5.651,-2.184 -9.048,-2.184 -7.211,0 -13.071,2.53 -17.577,7.592 -4.508,5.061 -6.76,11.441 -6.76,19.137 0,7.419 2.27,13.693 6.812,18.825 4.541,5.131 10.314,7.696 17.317,7.696 4.021,0 7.263,-0.727 9.725,-2.183 2.46,-1.456 4.176,-3.156 5.148,-5.097 v 30.578 z"
             style="fill:#00205c;fill-opacity:1;fill-rule:nonzero;stroke:none"
             id="path42" /></g><g
           id="g44"
           transform="translate(626.5176,348.3396)"><path
             d="m 0,0 h 24.857 c -0.139,3.188 -1.265,5.858 -3.379,8.009 -2.117,2.148 -5.149,3.224 -9.101,3.224 -3.606,0 -6.519,-1.128 -8.736,-3.38 C 1.42,5.599 0.208,2.98 0,0 m 26.21,-13.208 10.192,-3.225 c -1.456,-4.646 -4.178,-8.476 -8.165,-11.492 -3.987,-3.016 -8.892,-4.524 -14.716,-4.524 -7.212,0 -13.331,2.46 -18.357,7.384 -5.028,4.922 -7.541,11.508 -7.541,19.761 0,7.765 2.444,14.145 7.333,19.137 4.888,4.992 10.66,7.488 17.316,7.488 7.765,0 13.833,-2.376 18.202,-7.124 4.368,-4.75 6.552,-11.146 6.552,-19.189 0,-2.15 -0.104,-3.432 -0.312,-3.848 H -0.312 c 0.138,-3.814 1.542,-6.969 4.212,-9.465 2.668,-2.496 5.876,-3.744 9.621,-3.744 6.516,0 10.747,2.946 12.689,8.841"
             style="fill:#00205c;fill-opacity:1;fill-rule:nonzero;stroke:none"
             id="path46" /></g><g
           id="g48"
           transform="translate(704.8848,323.0661)"><path
             d="m 0,0 c -1.18,-2.22 -3.104,-3.952 -5.772,-5.2 -2.67,-1.248 -5.531,-1.872 -8.581,-1.872 -5.894,0 -10.556,1.906 -13.989,5.72 -3.431,3.813 -5.148,8.632 -5.148,14.457 v 31.93 h 12.065 V 15.289 c 0,-3.397 0.832,-6.172 2.496,-8.32 1.664,-2.151 4.229,-3.225 7.697,-3.225 3.396,0 6.014,1.04 7.852,3.12 1.836,2.081 2.756,4.82 2.756,8.217 V 45.035 H 11.44 V 3.641 c 0,-3.052 0.173,-6.137 0.521,-9.257 H 0.416 C 0.138,-4.092 0,-2.22 0,0"
             style="fill:#00205c;fill-opacity:1;fill-rule:nonzero;stroke:none"
             id="path50" /></g><g
           id="g52"
           transform="translate(724.1875,331.1794)"><path
             d="m 0,0 10.505,2.912 c 0.208,-2.429 1.212,-4.473 3.016,-6.137 1.802,-1.664 4.229,-2.496 7.281,-2.496 2.356,0 4.212,0.554 5.564,1.664 1.352,1.109 2.028,2.496 2.028,4.161 0,2.912 -1.976,4.784 -5.928,5.616 l -7.488,1.664 c -4.369,0.97 -7.733,2.772 -10.089,5.408 -2.359,2.635 -3.536,5.755 -3.536,9.36 0,4.437 1.801,8.269 5.408,11.494 3.604,3.223 8.009,4.835 13.209,4.835 3.328,0 6.274,-0.485 8.84,-1.456 2.564,-0.971 4.558,-2.236 5.98,-3.796 1.421,-1.56 2.513,-3.068 3.276,-4.524 0.763,-1.456 1.248,-2.912 1.456,-4.368 L 29.33,21.425 c -0.278,1.94 -1.162,3.692 -2.652,5.252 -1.492,1.56 -3.728,2.341 -6.708,2.341 -2.08,0 -3.815,-0.573 -5.2,-1.717 -1.389,-1.144 -2.081,-2.514 -2.081,-4.109 0,-2.843 1.699,-4.611 5.096,-5.303 l 7.696,-1.561 c 4.715,-1.04 8.321,-2.912 10.818,-5.616 2.496,-2.704 3.744,-5.964 3.744,-9.776 0,-4.231 -1.683,-7.993 -5.045,-11.285 -3.363,-3.295 -8.061,-4.94 -14.093,-4.94 -3.468,0 -6.57,0.519 -9.308,1.56 -2.74,1.04 -4.888,2.374 -6.449,4.004 C 3.589,-8.097 2.375,-6.467 1.509,-4.837 0.641,-3.208 0.139,-1.597 0,0"
             style="fill:#00205c;fill-opacity:1;fill-rule:nonzero;stroke:none"
             id="path54" /></g><g
           id="g56"
           transform="translate(375.3467,268.1945)"><path
             d="m 0,0 c -3.885,0 -7.175,-1.399 -9.878,-4.207 -2.704,-2.808 -4.06,-6.641 -4.06,-11.491 0,-4.928 1.369,-8.814 4.112,-11.657 2.738,-2.841 6.084,-4.258 10.035,-4.258 3.538,0 6.362,0.947 8.475,2.859 2.116,1.904 3.52,4.068 4.215,6.502 l 10.609,-3.851 c -1.39,-4.51 -4.076,-8.387 -8.062,-11.647 -3.989,-3.26 -9.066,-4.885 -15.237,-4.885 -7.419,0 -13.643,2.565 -18.671,7.693 -5.024,5.129 -7.54,11.543 -7.54,19.244 0,7.762 2.481,14.177 7.436,19.236 4.959,5.059 11.112,7.597 18.462,7.597 6.311,0 11.456,-1.634 15.446,-4.894 3.985,-3.26 6.567,-7.171 7.749,-11.752 L 12.273,-9.466 C 11.578,-6.823 10.244,-4.589 8.271,-2.755 6.293,-0.912 3.538,0 0,0"
             style="fill:#00205c;fill-opacity:1;fill-rule:nonzero;stroke:none"
             id="path58" /></g><g
           id="g60"
           transform="translate(416.8955,252.6965)"><path
             d="m 0,0 c 0,-4.92 1.251,-8.909 3.747,-11.96 2.494,-3.052 5.823,-4.572 9.982,-4.572 3.956,0 7.18,1.538 9.674,4.624 2.495,3.086 3.743,7.057 3.743,11.908 0,4.859 -1.23,8.744 -3.69,11.656 -2.465,2.912 -5.707,4.364 -9.727,4.364 C 9.64,16.02 6.328,14.568 3.798,11.656 1.265,8.744 0,4.859 0,0 m 27.25,-18.297 c -1.178,-2.573 -3.068,-4.65 -5.667,-6.241 -2.6,-1.6 -5.668,-2.399 -9.205,-2.399 -7.28,0 -13.173,2.555 -17.68,7.649 -4.507,5.094 -6.763,11.526 -6.763,19.288 0,7.493 2.256,13.786 6.763,18.88 4.507,5.101 10.33,7.648 17.471,7.648 4.02,0 7.297,-0.834 9.831,-2.494 2.529,-1.669 4.211,-3.538 5.041,-5.624 v 6.658 h 11.757 v -41.392 c 0,-2.703 0.169,-5.789 0.516,-9.257 H 27.771 c -0.347,1.938 -0.521,4.372 -0.521,7.284"
             style="fill:#00205c;fill-opacity:1;fill-rule:nonzero;stroke:none"
             id="path62" /></g><g
           id="g64"
           transform="translate(506.4268,252.4963)"><path
             d="m 0,0 c 0,4.712 -1.247,8.51 -3.746,11.387 -2.495,2.878 -5.789,4.311 -9.879,4.311 -4.024,0 -7.297,-1.433 -9.831,-4.311 C -25.985,8.51 -27.25,4.712 -27.25,0 c 0,-4.789 1.265,-8.64 3.794,-11.552 2.534,-2.912 5.807,-4.363 9.831,-4.363 4.021,0 7.297,1.451 9.826,4.363 C -1.265,-8.64 0,-4.789 0,0 m -27.146,-45.138 h -11.96 v 70.407 h 11.647 v -6.868 c 1.317,2.295 3.399,4.2 6.241,5.729 2.843,1.521 6.137,2.286 9.879,2.286 7.284,0 13.003,-2.486 17.163,-7.44 4.159,-4.955 6.24,-11.283 6.24,-18.976 0,-7.701 -2.185,-14.063 -6.553,-19.088 -4.368,-5.032 -10.122,-7.545 -17.263,-7.545 -3.468,0 -6.554,0.661 -9.257,1.983 -2.703,1.312 -4.751,2.981 -6.137,4.989 z"
             style="fill:#00205c;fill-opacity:1;fill-rule:nonzero;stroke:none"
             id="path66" /></g><path
           d="m 538.533,227.115 h -11.961 v 50.649 h 11.961 z"
           style="fill:#00205c;fill-opacity:1;fill-rule:nonzero;stroke:none"
           id="path68" /><path
           d="M 538.533,287.426 H 526.572 V 299.1 h 11.961 z"
           style="fill:#00205c;fill-opacity:1;fill-rule:nonzero;stroke:none"
           id="path70" /><g
           id="g72"
           transform="translate(567.5732,293.2629)"><path
             d="M 0,0 V -15.498 H 10.505 V -26.207 H 0 v -23.504 c 0,-2.225 0.518,-3.833 1.561,-4.841 1.039,-1.009 2.668,-1.504 4.884,-1.504 1.387,0 2.774,0.139 4.164,0.417 v -9.987 c -1.803,-0.765 -4.268,-1.147 -7.383,-1.147 -4.721,0 -8.428,1.338 -11.131,4.006 -2.703,2.669 -4.055,6.364 -4.055,11.075 v 25.485 h -9.361 v 10.709 h 2.598 c 2.565,0 4.507,0.73 5.825,2.182 1.316,1.46 1.976,3.364 1.976,5.728 V 0 Z"
             style="fill:#00205c;fill-opacity:1;fill-rule:nonzero;stroke:none"
             id="path74" /></g><g
           id="g76"
           transform="translate(596.1885,252.6965)"><path
             d="m 0,0 c 0,-4.92 1.252,-8.909 3.746,-11.96 2.495,-3.052 5.824,-4.572 9.983,-4.572 3.955,0 7.18,1.538 9.674,4.624 2.495,3.086 3.743,7.057 3.743,11.908 0,4.859 -1.23,8.744 -3.69,11.656 -2.465,2.912 -5.707,4.364 -9.727,4.364 C 9.64,16.02 6.328,14.568 3.798,11.656 1.265,8.744 0,4.859 0,0 m 27.25,-18.297 c -1.178,-2.573 -3.068,-4.65 -5.668,-6.241 -2.599,-1.6 -5.667,-2.399 -9.204,-2.399 -7.28,0 -13.174,2.555 -17.681,7.649 -4.507,5.094 -6.762,11.526 -6.762,19.288 0,7.493 2.255,13.786 6.762,18.88 4.507,5.101 10.331,7.648 17.472,7.648 4.02,0 7.297,-0.834 9.831,-2.494 2.529,-1.669 4.211,-3.538 5.041,-5.624 v 6.658 h 11.757 v -41.392 c 0,-2.703 0.169,-5.789 0.516,-9.257 H 27.771 c -0.347,1.938 -0.521,4.372 -0.521,7.284"
             style="fill:#00205c;fill-opacity:1;fill-rule:nonzero;stroke:none"
             id="path78" /></g><path
           d="m 658.678,227.115 h -12.064 v 75.3 h 12.064 z"
           style="fill:#00205c;fill-opacity:1;fill-rule:nonzero;stroke:none"
           id="path80" /><g
           id="g82"
           transform="translate(302.77,304.2522)"><path
             d="m 0,0 -32.855,18.969 c -10.806,6.239 -17.518,17.864 -17.518,30.342 V 87.249 L -17.518,68.28 C -6.712,62.042 0,50.416 0,37.938 Z M 0,-51.227 C 0,-63.704 -6.712,-75.33 -17.518,-81.568 l -32.855,-18.97 v 37.939 c 0,12.477 6.712,24.103 17.518,30.341 L 0,-13.288 Z m -71.327,25.614 -32.856,18.969 32.856,18.969 c 5.319,3.071 11.376,4.694 17.518,4.694 6.142,0 12.199,-1.623 17.517,-4.694 L -3.436,-6.644 -36.292,-25.613 c -5.318,-3.072 -11.375,-4.695 -17.517,-4.695 -6.142,0 -12.199,1.623 -17.518,4.695 m 14.082,-74.925 -32.856,18.97 c -10.805,6.238 -17.517,17.864 -17.517,30.341 v 37.939 l 32.855,-18.97 c 10.805,-6.238 17.518,-17.864 17.518,-30.341 z m -36.292,-25.613 c -5.318,-3.071 -11.376,-4.694 -17.518,-4.694 -6.141,0 -12.198,1.623 -17.517,4.694 l -32.856,18.969 32.856,18.97 c 5.319,3.07 11.376,4.693 17.517,4.693 6.142,0 12.2,-1.623 17.518,-4.693 l 32.856,-18.97 z m -71.327,63.552 c 0,12.477 6.713,24.103 17.518,30.341 l 32.855,18.97 v -37.939 c 0,-12.477 -6.712,-24.103 -17.517,-30.341 l -32.856,-18.97 z m -20.953,36.986 -32.856,18.969 32.856,18.969 c 5.318,3.071 11.376,4.694 17.517,4.694 6.142,0 12.199,-1.623 17.518,-4.694 l 32.856,-18.969 -32.856,-18.969 c -5.319,-3.072 -11.376,-4.695 -17.518,-4.695 -6.141,0 -12.199,1.623 -17.517,4.695 m 14.081,-74.925 -32.856,18.97 c -10.805,6.238 -17.517,17.864 -17.517,30.341 v 37.939 l 32.856,-18.97 c 10.805,-6.238 17.517,-17.864 17.517,-30.341 z m -50.373,138.476 c 0,12.478 6.712,24.104 17.517,30.342 l 32.856,18.969 V 49.311 c 0,-12.478 -6.712,-24.103 -17.517,-30.342 L -222.109,0 Z m 57.245,49.311 32.856,-18.969 c 10.805,-6.238 17.517,-17.864 17.517,-30.342 V 0 l -32.855,18.969 c -10.805,6.239 -17.518,17.864 -17.518,30.342 z m 107.619,0 V 49.311 c 0,-12.478 -6.713,-24.103 -17.518,-30.342 L -107.618,0 v 37.938 c 0,12.478 6.712,24.104 17.517,30.342 z m -71.327,25.614 c 5.319,3.07 11.376,4.693 17.517,4.693 6.142,0 12.2,-1.623 17.518,-4.693 l 32.856,-18.969 -32.856,-18.97 c -5.318,-3.07 -11.376,-4.694 -17.518,-4.694 -6.141,0 -12.198,1.624 -17.517,4.694 l -32.856,18.97 z m 115.284,-39.154 -77.635,44.823 c -12.457,7.192 -27.806,7.192 -40.263,0 l -77.635,-44.823 c -12.457,-7.192 -20.131,-20.484 -20.131,-34.868 v -90.97 c 0,-14.385 7.674,-27.677 20.131,-34.869 l 77.635,-44.822 c 12.457,-7.193 27.806,-7.193 40.263,0 l 77.635,44.822 c 12.457,7.192 20.131,21.809 20.131,36.193 v 89.646 c 0,14.384 -7.674,27.676 -20.131,34.868"
             style="fill:#e1261c;fill-opacity:1;fill-rule:nonzero;stroke:none"
             id="path84" /></g></g></g></g></svg>
